<svg width="204" height="50" viewBox="0 0 204 50" fill="none" xmlns="http://www.w3.org/2000/svg">
<path d="M19.002 0C8.50877 0 0 7.50874 0 16.7722C0 20.391 1.29776 23.7435 3.50516 26.4837C3.50736 26.4867 3.50948 26.4893 3.51162 26.4922C8.60464 33.5167 17.1478 39.6467 18.1715 48.6047C18.2721 48.9208 18.6312 49.1545 19.0018 49.1545C19.3723 49.1545 19.7314 48.9208 19.832 48.6047C20.8557 39.6468 29.3959 33.5165 34.4885 26.4922C34.4907 26.4893 34.4928 26.4866 34.4948 26.4837C36.7022 23.7434 38 20.3909 38 16.7722C38 7.50874 29.4951 0 19.0013 0H19.002ZM19.002 4.78196C26.5045 4.78196 32.5871 10.1521 32.5871 16.7751C32.5871 23.3984 26.5045 28.7653 19.002 28.7653C11.4997 28.7653 5.41676 23.3984 5.41676 16.7751C5.41683 10.152 11.4998 4.78196 19.002 4.78196ZM20.9571 8.73555C21.4992 8.73555 22.1838 9.06189 22.1838 9.54031V14.2802H27.194C27.7361 14.2802 28.4645 14.568 28.4645 15.0462V18.5012C28.4645 18.9793 27.7361 19.0327 27.194 19.0327H22.1838V24.0042C22.1838 24.4826 21.4989 24.5773 20.9571 24.5773H17.0436C16.5019 24.5773 15.9033 24.4826 15.9033 24.0042V19.0327H10.81C10.268 19.0327 9.62267 18.9794 9.62267 18.5012V15.0462C9.62267 14.568 10.268 14.2802 10.81 14.2802H15.9033V9.54031C15.9033 9.06202 16.5019 8.73555 17.0436 8.73555H20.9571Z" fill="#171617"/>
<path d="M53.704 29V38H49.384V13.52H57.556C60.028 13.52 61.924 14.156 63.244 15.428C64.588 16.676 65.26 18.356 65.26 20.468V22.016C65.26 23.408 64.96 24.632 64.36 25.688C63.76 26.744 62.896 27.548 61.768 28.1C63.736 31.46 65.416 34.76 66.808 38H61.876C60.676 35 59.248 32 57.592 29H53.704ZM57.556 17.48H53.704V25.04H57.556C58.612 25.04 59.416 24.776 59.968 24.248C60.544 23.696 60.832 22.952 60.832 22.016V20.468C60.832 19.556 60.544 18.836 59.968 18.308C59.416 17.756 58.612 17.48 57.556 17.48ZM85.5055 33.86V38H71.3215V13.52H85.1455V17.66H75.6415V23.528H84.0655V27.668H75.6415V33.86H85.5055ZM104.086 38V27.668H94.9423V38H90.6223V13.52H94.9423V23.528H104.086V13.52H108.406V38H104.086ZM128.193 38L126.681 33.212H118.293L116.781 38H112.497L120.669 13.52H124.485L132.693 38H128.193ZM120.633 25.724L119.517 29.252H125.421L124.305 25.724L122.505 19.532L120.633 25.724ZM136.782 38V13.52H144.234C146.058 13.52 147.498 13.784 148.554 14.312C149.634 14.84 150.402 15.584 150.858 16.544C151.338 17.504 151.578 18.632 151.578 19.928V20.936C151.578 22.832 150.762 24.284 149.13 25.292C150.282 25.748 151.158 26.408 151.758 27.272C152.358 28.136 152.658 29.168 152.658 30.368V31.376C152.658 32.696 152.418 33.86 151.938 34.868C151.458 35.852 150.666 36.62 149.562 37.172C148.458 37.724 146.982 38 145.134 38H136.782ZM144.234 17.48H141.102V23.6H144.234C145.194 23.6 145.914 23.384 146.394 22.952C146.898 22.496 147.15 21.884 147.15 21.116V19.928C147.15 19.16 146.898 18.56 146.394 18.128C145.914 17.696 145.194 17.48 144.234 17.48ZM145.134 27.56H141.102V34.04H145.134C146.142 34.04 146.91 33.8 147.438 33.32C147.966 32.84 148.23 32.192 148.23 31.376V30.188C148.23 29.372 147.966 28.736 147.438 28.28C146.91 27.8 146.142 27.56 145.134 27.56ZM162.161 38H157.841V13.52H162.161V38ZM181.443 28.604H173.235V38H168.915V13.52H182.523V17.66H173.235V24.464H181.443V28.604ZM203.183 13.52L195.695 28.172V38H191.375V28.244L183.815 13.52H188.423L193.715 23.96L198.719 13.52H203.183Z" fill="black"/>
</svg>
